<?xml version="1.0" encoding="UTF-8" standalone="no"?>
<!-- Created with Inkscape (http://www.inkscape.org/) -->

<svg
   width="64"
   height="64"
   viewBox="0 0 16.933333 16.933333"
   version="1.1"
   id="svg5"
   inkscape:version="1.2.1 (9c6d41e410, 2022-07-14)"
   sodipodi:docname="seeds.svg"
   xmlns:inkscape="http://www.inkscape.org/namespaces/inkscape"
   xmlns:sodipodi="http://sodipodi.sourceforge.net/DTD/sodipodi-0.dtd"
   xmlns="http://www.w3.org/2000/svg"
   xmlns:svg="http://www.w3.org/2000/svg">
  <sodipodi:namedview
     id="namedview7"
     pagecolor="#ffffff"
     bordercolor="#000000"
     borderopacity="0.25"
     inkscape:showpageshadow="2"
     inkscape:pageopacity="0.0"
     inkscape:pagecheckerboard="0"
     inkscape:deskcolor="#d1d1d1"
     inkscape:document-units="px"
     showgrid="false"
     inkscape:zoom="4.1776837"
     inkscape:cx="-5.026709"
     inkscape:cy="14.84076"
     inkscape:window-width="1920"
     inkscape:window-height="1009"
     inkscape:window-x="-8"
     inkscape:window-y="-8"
     inkscape:window-maximized="1"
     inkscape:current-layer="layer1" />
  <defs
     id="defs2" />
  <g
     inkscape:label="Lager 1"
     inkscape:groupmode="layer"
     id="layer1">
    <ellipse
       style="fill:#803300;stroke-width:0.264583;stroke-linecap:round;stroke-linejoin:round;paint-order:stroke fill markers"
       id="path238"
       cx="3.1982934"
       cy="6.7930403"
       rx="1.6149799"
       ry="2.6130922" />
    <ellipse
       style="fill:#803300;stroke-width:0.264583;stroke-linecap:round;stroke-linejoin:round;paint-order:stroke fill markers"
       id="path240"
       cx="7.5682387"
       cy="5.4465985"
       rx="1.2349846"
       ry="1.3299835" />
    <ellipse
       style="fill:#803300;stroke-width:0.264583;stroke-linecap:round;stroke-linejoin:round;paint-order:stroke fill markers"
       id="path242"
       cx="12.793173"
       cy="3.7366202"
       rx="2.6599669"
       ry="1.3299835" />
    <ellipse
       style="fill:#803300;stroke-width:0.264583;stroke-linecap:round;stroke-linejoin:round;paint-order:stroke fill markers"
       id="ellipse352"
       cx="11.283876"
       cy="6.9370465"
       rx="1.6149799"
       ry="2.6130922"
       transform="rotate(39.009093)" />
    <ellipse
       style="fill:#803300;stroke-width:0.264583;stroke-linecap:round;stroke-linejoin:round;paint-order:stroke fill markers"
       id="ellipse354"
       cx="15.562694"
       cy="0.086309917"
       rx="2.6599669"
       ry="1.3299835"
       transform="rotate(33.566317)" />
    <ellipse
       style="fill:#803300;stroke-width:0.264583;stroke-linecap:round;stroke-linejoin:round;paint-order:stroke fill markers"
       id="path356"
       cx="10.101541"
       cy="12.571509"
       rx="2.6283004"
       ry="1.8049775" />
    <ellipse
       style="fill:#000000;stroke-width:0.264583;stroke-linecap:round;stroke-linejoin:round;paint-order:stroke fill markers"
       id="path410"
       cx="3.2299595"
       cy="5.3832664"
       rx="0.75999051"
       ry="0.63332546" />
    <ellipse
       style="fill:#000000;stroke-width:0.176389;stroke-linecap:round;stroke-linejoin:round;paint-order:stroke fill markers"
       id="ellipse412"
       cx="7.599905"
       cy="4.9188275"
       rx="0.50666034"
       ry="0.42221698" />
    <ellipse
       style="fill:#000000;stroke-width:0.264583;stroke-linecap:round;stroke-linejoin:round;paint-order:stroke fill markers"
       id="ellipse414"
       cx="5.2566009"
       cy="11.336525"
       rx="0.75999051"
       ry="0.63332546" />
    <ellipse
       style="fill:#000000;stroke-width:0.264583;stroke-linecap:round;stroke-linejoin:round;paint-order:stroke fill markers"
       id="ellipse416"
       cx="8.8665562"
       cy="12.666509"
       rx="0.75999051"
       ry="0.63332546" />
    <ellipse
       style="fill:#000000;stroke-width:0.264583;stroke-linecap:round;stroke-linejoin:round;paint-order:stroke fill markers"
       id="ellipse418"
       cx="11.906518"
       cy="8.1065655"
       rx="0.75999051"
       ry="0.63332546" />
    <ellipse
       style="fill:#000000;stroke-width:0.198437;stroke-linecap:round;stroke-linejoin:round;paint-order:stroke fill markers"
       id="ellipse420"
       cx="11.653188"
       cy="3.5782886"
       rx="0.5699929"
       ry="0.47499409" />
    <g
       id="g545"
       transform="rotate(-14.511177,2.8874261,3.6710412)">
      <g
         id="g480"
         transform="translate(6.428253,-3.0716283)">
        <ellipse
           style="fill:#008000;stroke-width:0.264583;stroke-linecap:round;stroke-linejoin:round;paint-order:stroke fill markers"
           id="path474"
           cx="-3.6574543"
           cy="6.459919"
           rx="0.42749467"
           ry="0.85498935" />
        <ellipse
           style="fill:#008000;stroke-width:0.264583;stroke-linecap:round;stroke-linejoin:round;paint-order:stroke fill markers"
           id="ellipse476"
           cx="-7.6991425"
           cy="1.3270292"
           rx="0.42749467"
           ry="0.85498935"
           transform="rotate(-48.5598)" />
      </g>
      <path
         id="path536"
         style="fill:#008000;stroke-width:0.264583;stroke-linecap:round;stroke-linejoin:round;paint-order:stroke fill markers"
         d="M 2.6990029,4.0407659 A 0.46952641,0.86884332 0 0 1 2.9423989,4.8024765 0.46952641,0.86884332 0 0 1 2.8504149,5.3197576 0.50666034,0.68082482 0 0 0 3.1279173,4.7130762 0.50666034,0.68082482 0 0 0 2.6990029,4.0407659 Z" />
    </g>
    <g
       id="g555"
       transform="matrix(-0.42719364,0.90416016,0.90416016,0.42719364,7.9933259,-1.3998924)">
      <g
         id="g551"
         transform="translate(6.428253,-3.0716283)">
        <ellipse
           style="fill:#008000;stroke-width:0.264583;stroke-linecap:round;stroke-linejoin:round;paint-order:stroke fill markers"
           id="ellipse547"
           cx="-3.6574543"
           cy="6.459919"
           rx="0.42749467"
           ry="0.85498935" />
        <ellipse
           style="fill:#008000;stroke-width:0.264583;stroke-linecap:round;stroke-linejoin:round;paint-order:stroke fill markers"
           id="ellipse549"
           cx="-7.6991425"
           cy="1.3270292"
           rx="0.42749467"
           ry="0.85498935"
           transform="rotate(-48.5598)" />
      </g>
      <path
         id="path553"
         style="fill:#008000;stroke-width:0.264583;stroke-linecap:round;stroke-linejoin:round;paint-order:stroke fill markers"
         d="M 2.6990029,4.0407659 A 0.46952641,0.86884332 0 0 1 2.9423989,4.8024765 0.46952641,0.86884332 0 0 1 2.8504149,5.3197576 0.50666034,0.68082482 0 0 0 3.1279173,4.7130762 0.50666034,0.68082482 0 0 0 2.6990029,4.0407659 Z" />
    </g>
    <g
       id="g565"
       transform="matrix(-0.72175523,0.69214839,0.69214839,0.72175523,7.3733078,6.8547512)">
      <g
         id="g561"
         transform="translate(6.428253,-3.0716283)">
        <ellipse
           style="fill:#008000;stroke-width:0.264583;stroke-linecap:round;stroke-linejoin:round;paint-order:stroke fill markers"
           id="ellipse557"
           cx="-3.6574543"
           cy="6.459919"
           rx="0.42749467"
           ry="0.85498935" />
        <ellipse
           style="fill:#008000;stroke-width:0.264583;stroke-linecap:round;stroke-linejoin:round;paint-order:stroke fill markers"
           id="ellipse559"
           cx="-7.6991425"
           cy="1.3270292"
           rx="0.42749467"
           ry="0.85498935"
           transform="rotate(-48.5598)" />
      </g>
      <path
         id="path563"
         style="fill:#008000;stroke-width:0.264583;stroke-linecap:round;stroke-linejoin:round;paint-order:stroke fill markers"
         d="M 2.6990029,4.0407659 A 0.46952641,0.86884332 0 0 1 2.9423989,4.8024765 0.46952641,0.86884332 0 0 1 2.8504149,5.3197576 0.50666034,0.68082482 0 0 0 3.1279173,4.7130762 0.50666034,0.68082482 0 0 0 2.6990029,4.0407659 Z" />
    </g>
    <g
       id="g575"
       transform="rotate(32.383602,-6.225294,12.210444)">
      <g
         id="g571"
         transform="translate(6.428253,-3.0716283)">
        <ellipse
           style="fill:#008000;stroke-width:0.264583;stroke-linecap:round;stroke-linejoin:round;paint-order:stroke fill markers"
           id="ellipse567"
           cx="-3.6574543"
           cy="6.459919"
           rx="0.42749467"
           ry="0.85498935" />
        <ellipse
           style="fill:#008000;stroke-width:0.264583;stroke-linecap:round;stroke-linejoin:round;paint-order:stroke fill markers"
           id="ellipse569"
           cx="-7.6991425"
           cy="1.3270292"
           rx="0.42749467"
           ry="0.85498935"
           transform="rotate(-48.5598)" />
      </g>
      <path
         id="path573"
         style="fill:#008000;stroke-width:0.264583;stroke-linecap:round;stroke-linejoin:round;paint-order:stroke fill markers"
         d="M 2.6990029,4.0407659 A 0.46952641,0.86884332 0 0 1 2.9423989,4.8024765 0.46952641,0.86884332 0 0 1 2.8504149,5.3197576 0.50666034,0.68082482 0 0 0 3.1279173,4.7130762 0.50666034,0.68082482 0 0 0 2.6990029,4.0407659 Z" />
    </g>
  </g>
</svg>
