<?xml version="1.0" encoding="UTF-8" standalone="no"?>
<!-- Created with Inkscape (http://www.inkscape.org/) -->

<svg
   width="64"
   height="64"
   viewBox="0 0 16.933333 16.933333"
   version="1.1"
   id="svg5"
   inkscape:version="1.2.1 (9c6d41e410, 2022-07-14)"
   sodipodi:docname="wheat.svg"
   xmlns:inkscape="http://www.inkscape.org/namespaces/inkscape"
   xmlns:sodipodi="http://sodipodi.sourceforge.net/DTD/sodipodi-0.dtd"
   xmlns="http://www.w3.org/2000/svg"
   xmlns:svg="http://www.w3.org/2000/svg">
  <sodipodi:namedview
     id="namedview7"
     pagecolor="#ffffff"
     bordercolor="#000000"
     borderopacity="0.25"
     inkscape:showpageshadow="2"
     inkscape:pageopacity="0.0"
     inkscape:pagecheckerboard="0"
     inkscape:deskcolor="#d1d1d1"
     inkscape:document-units="px"
     showgrid="false"
     inkscape:zoom="8.3553674"
     inkscape:cx="35.127121"
     inkscape:cy="34.708229"
     inkscape:window-width="1920"
     inkscape:window-height="1009"
     inkscape:window-x="-8"
     inkscape:window-y="-8"
     inkscape:window-maximized="1"
     inkscape:current-layer="layer1" />
  <defs
     id="defs2" />
  <g
     inkscape:label="Lager 1"
     inkscape:groupmode="layer"
     id="layer1">
    <path
       id="path427"
       style="fill:#ffd42a;stroke:#000000;stroke-width:0.324847;stroke-linecap:round;stroke-linejoin:round;paint-order:stroke fill markers"
       d="m 6.6161088,1.2015734 a 4.1406036,7.3481131 0 0 0 -0.6433504,0.092633 4.1406036,7.3481131 0 0 1 3.4844974,7.2557742 4.1406036,7.3481131 0 0 1 -3.490842,7.2532374 4.1406036,7.3481131 0 0 0 0.649695,0.09454 A 4.1406036,7.3481131 0 0 0 10.756646,8.54998 4.1406036,7.3481131 0 0 0 6.6161088,1.2015734 Z" />
    <path
       id="path415"
       style="fill:#ffd42a;stroke:#000000;stroke-width:0.324847;stroke-linecap:round;stroke-linejoin:round;paint-order:stroke fill markers"
       d="m 12.040043,1.2015734 a 4.1406036,7.3481131 0 0 1 0.643351,0.092633 4.1406036,7.3481131 0 0 0 -3.4844992,7.2557742 4.1406036,7.3481131 0 0 0 3.4908432,7.2532374 4.1406036,7.3481131 0 0 1 -0.649695,0.09454 A 4.1406036,7.3481131 0 0 1 7.8995047,8.54998 4.1406036,7.3481131 0 0 1 12.040043,1.2015734 Z" />
    <path
       id="path417"
       style="fill:#ffd42a;stroke:#000000;stroke-width:0.305672;stroke-linecap:round;stroke-linejoin:round;paint-order:stroke fill markers"
       d="m 12.995347,1.6353137 a 3.8961937,6.9143716 0 0 1 0.605376,0.087165 3.8961937,6.9143716 0 0 0 -3.278818,6.8274832 3.8961937,6.9143716 0 0 0 3.284788,6.8250961 3.8961937,6.9143716 0 0 1 -0.611346,0.08896 A 3.8961937,6.9143716 0 0 1 9.0992148,8.5499615 3.8961937,6.9143716 0 0 1 12.995347,1.6353137 Z" />
    <path
       id="path419"
       style="fill:#ffd42a;stroke:#000000;stroke-width:0.283758;stroke-linecap:round;stroke-linejoin:round;paint-order:stroke fill markers"
       d="m 13.406767,2.1310169 a 3.616868,6.4186669 0 0 1 0.561974,0.080916 3.616868,6.4186669 0 0 0 -3.043753,6.3380077 3.616868,6.4186669 0 0 0 3.049295,6.3357914 3.616868,6.4186669 0 0 1 -0.567516,0.08258 A 3.616868,6.4186669 0 0 1 9.7899549,8.5499402 3.616868,6.4186669 0 0 1 13.406767,2.1310169 Z" />
    <path
       id="path425"
       style="fill:#ffd42a;stroke:#000000;stroke-width:0.324847;stroke-linecap:round;stroke-linejoin:round;paint-order:stroke fill markers"
       d="m 10.452542,1.2015734 a 4.1406036,7.3481131 0 0 1 0.643351,0.092633 4.1406036,7.3481131 0 0 0 -3.4844983,7.2557742 4.1406036,7.3481131 0 0 0 3.4908423,7.2532374 4.1406036,7.3481131 0 0 1 -0.649695,0.09454 A 4.1406036,7.3481131 0 0 1 6.3120046,8.54998 4.1406036,7.3481131 0 0 1 10.452542,1.2015734 Z" />
    <path
       id="path413"
       style="fill:#ffd42a;stroke:#000000;stroke-width:0.324847;stroke-linecap:round;stroke-linejoin:round;paint-order:stroke fill markers"
       d="m 5.0286087,1.2015734 a 4.1406036,7.3481131 0 0 0 -0.6433504,0.092633 4.1406036,7.3481131 0 0 1 3.4844974,7.2557742 4.1406036,7.3481131 0 0 1 -3.490842,7.2532374 4.1406036,7.3481131 0 0 0 0.649695,0.09454 A 4.1406036,7.3481131 0 0 0 9.1691458,8.54998 4.1406036,7.3481131 0 0 0 5.0286087,1.2015734 Z" />
    <path
       id="path421"
       style="fill:#ffd42a;stroke:#000000;stroke-width:0.276741;stroke-linecap:round;stroke-linejoin:round;paint-order:stroke fill markers"
       d="m 13.911314,2.2897552 a 3.5274199,6.2599282 0 0 1 0.548077,0.078914 3.5274199,6.2599282 0 0 0 -2.968479,6.1812638 3.5274199,6.2599282 0 0 0 2.973884,6.179102 3.5274199,6.2599282 0 0 1 -0.553482,0.08053 3.5274199,6.2599282 0 0 1 -3.527365,-6.2596317 3.5274199,6.2599282 0 0 1 3.527365,-6.2601781 z" />
    <path
       id="path411"
       style="fill:#ffd42a;stroke:#000000;stroke-width:0.305672;stroke-linecap:round;stroke-linejoin:round;paint-order:stroke fill markers"
       d="m 4.0733046,1.6353137 a 3.8961937,6.9143716 0 0 0 -0.605375,0.087165 3.8961937,6.9143716 0 0 1 3.2788159,6.8274832 3.8961937,6.9143716 0 0 1 -3.284786,6.8250961 3.8961937,6.9143716 0 0 0 0.6113451,0.08896 A 3.8961937,6.9143716 0 0 0 7.9694357,8.5499615 3.8961937,6.9143716 0 0 0 4.0733046,1.6353137 Z" />
    <path
       id="path409"
       style="fill:#ffd42a;stroke:#000000;stroke-width:0.283758;stroke-linecap:round;stroke-linejoin:round;paint-order:stroke fill markers"
       d="M 3.6618857,2.1310169 A 3.616868,6.4186669 0 0 0 3.0999112,2.2119329 3.616868,6.4186669 0 0 1 6.1436624,8.5499406 3.616868,6.4186669 0 0 1 3.0943691,14.885732 3.616868,6.4186669 0 0 0 3.6618857,14.968312 3.616868,6.4186669 0 0 0 7.2786956,8.5499402 3.616868,6.4186669 0 0 0 3.6618857,2.1310169 Z" />
    <path
       id="path403"
       style="fill:#ffd42a;stroke:#000000;stroke-width:0.276741;stroke-linecap:round;stroke-linejoin:round;paint-order:stroke fill markers"
       d="M 3.1573385,2.2897552 A 3.5274199,6.2599282 0 0 0 2.6092621,2.3686697 3.5274199,6.2599282 0 0 1 5.5777389,8.5499335 3.5274199,6.2599282 0 0 1 2.603857,14.729036 3.5274199,6.2599282 0 0 0 3.1573385,14.809569 3.5274199,6.2599282 0 0 0 6.6847018,8.5499333 3.5274199,6.2599282 0 0 0 3.1573385,2.2897552 Z" />
    <path
       id="ellipse398"
       style="fill:#ffd42a;stroke:#000000;stroke-width:0.254639;stroke-linecap:round;stroke-linejoin:round;paint-order:stroke fill markers"
       d="M 2.5528137,2.8870199 A 3.2457201,5.7600102 0 0 0 2.0485067,2.9596323 3.2457201,5.7600102 0 0 1 4.7799209,8.6472602 3.2457201,5.7600102 0 0 1 2.0435333,14.332899 3.2457201,5.7600102 0 0 0 2.5528137,14.407008 3.2457201,5.7600102 0 0 0 5.7984818,8.6472619 3.2457201,5.7600102 0 0 0 2.5528137,2.8870217 Z" />
    <path
       id="path423"
       style="fill:#ffd42a;stroke:#000000;stroke-width:0.254639;stroke-linecap:round;stroke-linejoin:round;paint-order:stroke fill markers"
       d="m 14.515839,2.8870199 a 3.2457201,5.7600102 0 0 1 0.504307,0.072612 3.2457201,5.7600102 0 0 0 -2.731415,5.6876279 3.2457201,5.7600102 0 0 0 2.736389,5.6856392 3.2457201,5.7600102 0 0 1 -0.509281,0.07411 3.2457201,5.7600102 0 0 1 -3.24567,-5.7597471 3.2457201,5.7600102 0 0 1 3.24567,-5.7602402 z" />
    <rect
       style="fill:#552200;stroke-width:0.240377;stroke-linecap:round;stroke-linejoin:round;paint-order:stroke fill markers"
       id="rect234"
       width="7.8532357"
       height="1.6466461"
       x="4.5400486"
       y="7.6433434" />
  </g>
</svg>
